<?xml version="1.0" encoding="UTF-8"?><svg xmlns="http://www.w3.org/2000/svg" xmlns:xlink="http://www.w3.org/1999/xlink" contentScriptType="text/ecmascript" width="150" zoomAndPan="magnify" contentStyleType="text/css" viewBox="0 0 150 131.249995" height="131.249995" preserveAspectRatio="xMidYMid meet" version="1.0"><defs><clipPath id="clip-0"><path d="M 27 47 L 124 47 L 124 130.503906 L 27 130.503906 Z M 27 47 " clip-rule="nonzero"/></clipPath><clipPath id="clip-1"><path d="M 110 38 L 148.828125 38 L 148.828125 84 L 110 84 Z M 110 38 " clip-rule="nonzero"/></clipPath></defs><g clip-path="url(#clip-0)"><path fill="rgb(100%, 54.899597%, 54.899597%)" d="M 106.671875 79.289062 C 103.960938 78.113281 100.273438 72.753906 97.699219 66.25 C 95.972656 61.878906 90.816406 48.957031 76.855469 47.96875 C 76.574219 47.910156 76.285156 47.875 75.992188 47.875 C 75.847656 47.875 75.722656 47.894531 75.578125 47.898438 C 75.4375 47.894531 75.3125 47.875 75.167969 47.875 C 74.871094 47.875 74.585938 47.910156 74.304688 47.96875 C 60.34375 48.957031 55.1875 61.878906 53.460938 66.25 C 50.886719 72.753906 47.199219 78.113281 44.488281 79.289062 C 32.90625 84.320312 25.957031 96.492188 27.589844 108.890625 C 29.089844 120.257812 37.367188 128.417969 49.191406 130.1875 C 50.574219 130.394531 51.96875 130.496094 53.363281 130.496094 C 57.164062 130.496094 60.964844 129.730469 64.542969 128.230469 C 66.109375 127.574219 67.523438 126.8125 68.890625 126.078125 C 71.253906 124.804688 73.324219 123.699219 75.578125 123.445312 C 77.832031 123.699219 79.90625 124.804688 82.269531 126.078125 C 83.636719 126.8125 85.050781 127.574219 86.613281 128.230469 C 90.195312 129.730469 93.996094 130.496094 97.796875 130.496094 C 99.191406 130.496094 100.585938 130.394531 101.96875 130.1875 C 113.792969 128.417969 122.070312 120.257812 123.570312 108.890625 C 125.203125 96.492188 118.253906 84.320312 106.671875 79.289062 Z M 106.671875 79.289062 " fill-opacity="1" fill-rule="nonzero"/></g><path fill="rgb(100%, 54.899597%, 54.899597%)" d="M 39.421875 58.722656 C 37.792969 47.492188 29.40625 39.023438 19.910156 39.023438 C 19.148438 39.023438 18.378906 39.078125 17.621094 39.1875 C 7.378906 40.664062 0.488281 51.832031 2.261719 64.085938 C 3.890625 75.316406 12.28125 83.785156 21.777344 83.785156 C 22.539062 83.785156 23.308594 83.726562 24.0625 83.621094 C 34.308594 82.136719 41.195312 70.96875 39.421875 58.722656 Z M 39.421875 58.722656 " fill-opacity="1" fill-rule="nonzero"/><path fill="rgb(100%, 54.899597%, 54.899597%)" d="M 51.480469 44.894531 C 61.832031 44.894531 70.253906 34.824219 70.253906 22.445312 C 70.253906 10.070312 61.832031 0 51.480469 0 C 41.128906 0 32.707031 10.070312 32.707031 22.445312 C 32.707031 34.824219 41.128906 44.894531 51.480469 44.894531 Z M 51.480469 44.894531 " fill-opacity="1" fill-rule="nonzero"/><g clip-path="url(#clip-1)"><path fill="rgb(100%, 54.899597%, 54.899597%)" d="M 144.300781 46.824219 C 141.046875 42.136719 136.402344 39.359375 131.222656 39.007812 C 120.867188 38.296875 111.804688 47.835938 110.96875 60.132812 C 110.574219 65.949219 112.039062 71.574219 115.097656 75.980469 C 118.351562 80.671875 122.996094 83.445312 128.171875 83.796875 C 128.535156 83.824219 128.898438 83.835938 129.257812 83.835938 C 139.199219 83.835938 147.621094 74.539062 148.425781 62.671875 C 148.824219 56.859375 147.355469 51.230469 144.300781 46.824219 Z M 144.300781 46.824219 " fill-opacity="1" fill-rule="nonzero"/></g><path fill="rgb(100%, 54.899597%, 54.899597%)" d="M 99.0625 44.894531 C 109.410156 44.894531 117.832031 34.824219 117.832031 22.445312 C 117.832031 10.070312 109.410156 0 99.0625 0 C 88.710938 0 80.289062 10.070312 80.289062 22.445312 C 80.289062 34.824219 88.710938 44.894531 99.0625 44.894531 Z M 99.0625 44.894531 " fill-opacity="1" fill-rule="nonzero"/></svg>