<?xml version="1.0" encoding="UTF-8"?><svg xmlns="http://www.w3.org/2000/svg" xmlns:xlink="http://www.w3.org/1999/xlink" contentScriptType="text/ecmascript" width="150" zoomAndPan="magnify" contentStyleType="text/css" viewBox="0 0 150 131.249995" height="131.249995" preserveAspectRatio="xMidYMid meet" version="1.0"><defs><clipPath id="clip-0"><path d="M 130 73 L 149.574219 73 L 149.574219 119 L 130 119 Z M 130 73 " clip-rule="nonzero"/></clipPath></defs><path fill="rgb(29.019165%, 67.83905%, 76.078796%)" d="M 58.886719 59.222656 C 55.496094 58.128906 40.976562 53.429688 33.773438 51.035156 C 30.121094 60.382812 10.820312 110.957031 17.472656 119.652344 C 24.804688 129.246094 51.140625 118.003906 58.808594 119.652344 C 66.476562 121.308594 65.53125 116.023438 65.53125 116.023438 Z M 58.886719 59.222656 " fill-opacity="1" fill-rule="nonzero"/><path fill="rgb(29.019165%, 67.83905%, 76.078796%)" d="M 78.195312 30.820312 C 76.183594 28.09375 64.742188 28.667969 64.742188 28.667969 C 64.742188 28.667969 61.839844 22.488281 59.96875 21.347656 C 57.785156 20.015625 51.679688 20.25 51.679688 20.25 C 51.679688 20.25 52.246094 11.300781 49.492188 10.636719 C 44.242188 9.363281 37.253906 37.152344 35.054688 46.511719 C 40.96875 48.890625 52.042969 53.132812 58.292969 54.164062 L 58.234375 53.636719 C 58.234375 53.636719 58.449219 49.117188 61.488281 48.039062 C 63.53125 47.316406 73.640625 45.257812 76.464844 42.445312 C 78.550781 40.363281 79.949219 33.191406 78.195312 30.820312 Z M 78.195312 30.820312 " fill-opacity="1" fill-rule="nonzero"/><path fill="rgb(29.019165%, 67.83905%, 76.078796%)" d="M 87.519531 75.472656 C 92.035156 74.121094 99.0625 71.648438 104.863281 67.964844 C 104.636719 64.972656 105.609375 61.632812 106.023438 59.59375 C 106.671875 56.367188 105.808594 54.523438 104.070312 49.90625 C 103.757812 49.074219 102.339844 39.859375 99.515625 39.570312 C 96.726562 39.289062 93.003906 48.613281 93.003906 48.613281 C 93.003906 48.613281 84.972656 48.613281 84.011719 52.164062 C 82.855469 56.433594 78.417969 58.753906 78.246094 59.378906 C 77.578125 61.78125 78.753906 68.308594 82.613281 69.304688 C 84.96875 69.914062 86.671875 72.949219 87.519531 75.472656 Z M 87.519531 75.472656 " fill-opacity="1" fill-rule="nonzero"/><path fill="rgb(29.019165%, 67.83905%, 76.078796%)" d="M 106.832031 72.53125 C 106.460938 72.191406 106.160156 71.808594 105.902344 71.402344 C 102.785156 73.082031 93.40625 78.011719 88.203125 79.421875 C 90.328125 89.359375 89.113281 114.449219 89.175781 115.527344 C 89.265625 117.117188 88.214844 118.109375 88.992188 119.378906 C 90.179688 121.324219 92.507812 121.507812 95.253906 121.015625 C 98.003906 120.511719 118.472656 126.140625 131.292969 120.820312 C 147.023438 111.421875 120.78125 77.960938 106.832031 72.53125 Z M 106.832031 72.53125 " fill-opacity="1" fill-rule="nonzero"/><path fill="rgb(29.019165%, 67.83905%, 76.078796%)" d="M 16.804688 116.511719 C 5.875 108.175781 5.773438 88.988281 2.980469 94.785156 C 0.371094 100.203125 2.921875 113.28125 7.804688 119.027344 C 12.289062 124.300781 21.539062 124.050781 21.90625 120.742188 " fill-opacity="1" fill-rule="nonzero"/><g clip-path="url(#clip-0)"><path fill="rgb(29.019165%, 67.83905%, 76.078796%)" d="M 136.070312 110.125 C 140.363281 112.808594 148.167969 101.382812 141.695312 97.53125 C 137.621094 95.109375 137.171875 94.371094 136.023438 92.492188 C 133.257812 87.980469 136.878906 75.367188 143.855469 73.742188 C 149.039062 72.539062 149.375 77.261719 146.527344 78.804688 C 139.765625 82.792969 139.199219 89.488281 143.800781 92.753906 C 146.402344 94.597656 148.238281 95.914062 149.371094 100.027344 C 150.972656 105.828125 146.167969 115.058594 136.933594 117.960938 C 136.933594 117.960938 131.796875 119.109375 130.847656 117.019531 " fill-opacity="1" fill-rule="nonzero"/></g><path fill="rgb(100%, 54.899597%, 54.899597%)" d="M 78.113281 6.492188 C 78.113281 12.382812 88.671875 19.566406 88.671875 19.566406 C 88.671875 19.566406 99.1875 12.332031 99.234375 6.492188 C 99.234375 3.476562 96.78125 1.019531 93.769531 1.019531 C 91.453125 1.019531 89.460938 2.503906 88.671875 4.542969 C 87.886719 2.503906 85.894531 1.019531 83.578125 1.019531 C 80.566406 1.019531 78.113281 3.476562 78.113281 6.492188 " fill-opacity="1" fill-rule="nonzero"/></svg>